<svg width="80px" height="80px" viewBox="-3.84 -3.84 55.68 55.68" fill="none" xmlns="http://www.w3.org/2000/svg" stroke="#000000" transform="matrix(1, 0, 0, 1, 0, 0)rotate(0)"><g id="SVGRepo_bgCarrier" stroke-width="0" transform="translate(6,6), scale(0.75)"><path transform="translate(-3.84, -3.84), scale(3.4799999999999995)" fill="#7ed0ec" d="M9.166.33a2.25 2.25 0 00-2.332 0l-5.25 3.182A2.25 2.25 0 00.5 5.436v5.128a2.25 2.25 0 001.084 1.924l5.25 3.182a2.25 2.25 0 002.332 0l5.25-3.182a2.25 2.25 0 001.084-1.924V5.436a2.25 2.25 0 00-1.084-1.924L9.166.33z" strokewidth="0"></path></g><g id="SVGRepo_tracerCarrier" stroke-linecap="round" stroke-linejoin="round" stroke="#211717" stroke-width="3.6480000000000006"> <g clip-path="url(#clip0)"> <path d="M24 40C32.2843 40 39 33.2843 39 25C39 16.7157 32.2843 10 24 10C15.7157 10 9 16.7157 9 25C9 33.2843 15.7157 40 24 40Z" stroke="#ff0000" stroke-width="3.312" stroke-linecap="round" stroke-linejoin="round"></path> <path d="M20.0002 11C21.8049 12.0083 23.5002 13.5 23.3581 15.4454C23.2445 17 21.915 17.3469 21.6369 18.4711C21.359 19.5953 22.9674 20.8217 20.2464 22.636C18.4324 23.8455 12.971 26.1447 9 24" stroke="#ff0000" stroke-width="3.312" stroke-linecap="round"></path> <path d="M9.50011 24.5C6.50011 26.3883 2.06824 31.5211 4.00056 35C6.5 39.5 16.0004 35.6906 27.0001 27C37.9999 18.3094 42.2291 5.60643 42.2291 5.60643L37.0005 7.00001" stroke="#ff0000" stroke-width="3.312" stroke-linecap="round" stroke-linejoin="round"></path> <path d="M26.0006 40C26.0006 40 26.5003 35 30 32C33.4997 29 38.0007 29 38.0007 29" stroke="#ff0000" stroke-width="3.312" stroke-linecap="round"></path> </g> <defs> <clipPath id="clip0"> <rect width="48" height="48" fill="white"></rect> </clipPath> </defs> </g><g id="SVGRepo_iconCarrier"> <g clip-path="url(#clip0)"> <path d="M24 40C32.2843 40 39 33.2843 39 25C39 16.7157 32.2843 10 24 10C15.7157 10 9 16.7157 9 25C9 33.2843 15.7157 40 24 40Z" stroke="#ff0000" stroke-width="3.312" stroke-linecap="round" stroke-linejoin="round"></path> <path d="M20.0002 11C21.8049 12.0083 23.5002 13.5 23.3581 15.4454C23.2445 17 21.915 17.3469 21.6369 18.4711C21.359 19.5953 22.9674 20.8217 20.2464 22.636C18.4324 23.8455 12.971 26.1447 9 24" stroke="#ff0000" stroke-width="3.312" stroke-linecap="round"></path> <path d="M9.50011 24.5C6.50011 26.3883 2.06824 31.5211 4.00056 35C6.5 39.5 16.0004 35.6906 27.0001 27C37.9999 18.3094 42.2291 5.60643 42.2291 5.60643L37.0005 7.00001" stroke="#ff0000" stroke-width="3.312" stroke-linecap="round" stroke-linejoin="round"></path> <path d="M26.0006 40C26.0006 40 26.5003 35 30 32C33.4997 29 38.0007 29 38.0007 29" stroke="#ff0000" stroke-width="3.312" stroke-linecap="round"></path> </g> <defs> <clipPath id="clip0"> <rect width="48" height="48" fill="white"></rect> </clipPath> </defs> </g></svg>